<svg width="65" height="66" viewBox="0 0 65 66" fill="none" xmlns="http://www.w3.org/2000/svg">
<circle cx="32.5" cy="32.9683" r="32.5" fill="#0156FF"/>
<path d="M32.9121 20.8606C26.1068 20.8606 20.5703 26.3971 20.5703 33.2024V38.3156C20.5703 39.5794 21.6774 40.6074 23.0387 40.6074H24.2728C24.6002 40.6074 24.9141 40.4774 25.1455 40.246C25.377 40.0145 25.507 39.7006 25.507 39.3733V33.0259C25.507 32.6986 25.377 32.3846 25.1455 32.1532C24.9141 31.9217 24.6002 31.7917 24.2728 31.7917H23.1522C23.8384 27.0154 27.9482 23.329 32.9121 23.329C37.8759 23.329 41.9858 27.0154 42.672 31.7917H41.5513C41.224 31.7917 40.9101 31.9217 40.6786 32.1532C40.4472 32.3846 40.3172 32.6986 40.3172 33.0259V40.6074C40.3172 41.9687 39.2101 43.0758 37.8488 43.0758H35.3804V41.8416H30.4437V45.5441H37.8488C40.5714 45.5441 42.7855 43.33 42.7855 40.6074C44.1468 40.6074 45.2539 39.5794 45.2539 38.3156V33.2024C45.2539 26.3971 39.7173 20.8606 32.9121 20.8606Z" fill="white"/>
</svg>
