<svg width="16" height="17" viewBox="0 0 16 17" fill="none" xmlns="http://www.w3.org/2000/svg">
<circle cx="8" cy="9" r="8" fill="#0156FF"/>
<path d="M5.53355 10.63C5.76022 10.45 5.86355 10.3667 5.84355 10.38C6.49689 9.84 7.01022 9.39667 7.38355 9.05C7.76355 8.70333 8.08355 8.34 8.34355 7.96C8.60355 7.58 8.73355 7.21 8.73355 6.85C8.73355 6.57667 8.67022 6.36333 8.54355 6.21C8.41689 6.05667 8.22689 5.98 7.97355 5.98C7.72022 5.98 7.52022 6.07667 7.37355 6.27C7.23355 6.45667 7.16355 6.72333 7.16355 7.07H5.51355C5.52689 6.50333 5.64689 6.03 5.87355 5.65C6.10689 5.27 6.41022 4.99 6.78355 4.81C7.16355 4.63 7.58355 4.54 8.04355 4.54C8.83689 4.54 9.43355 4.74333 9.83355 5.15C10.2402 5.55667 10.4436 6.08667 10.4436 6.74C10.4436 7.45333 10.2002 8.11667 9.71355 8.73C9.22689 9.33667 8.60689 9.93 7.85355 10.51H10.5536V11.9H5.53355V10.63Z" fill="white"/>
</svg>
