<svg width="77" height="27" viewBox="0 0 77 27" fill="none" xmlns="http://www.w3.org/2000/svg">
<path d="M27.2846 9.97204L21.1213 15.3837H5.85683C4.43303 15.3818 3.05772 15.8885 1.99023 16.8081L9.68903 10.0465L9.80715 9.94431L19.4527 1.46631C21.008 0.100722 23.1915 -0.351235 25.1807 0.280685C27.17 0.912604 28.6627 2.5324 29.0967 4.5299C29.5306 6.52741 28.8398 8.59915 27.2846 9.96474V9.97204Z" fill="#F15B41"/>
<path d="M5.85671 11.4407C9.09128 11.4407 11.7134 8.88129 11.7134 5.72404C11.7134 2.56679 9.09128 0.00733566 5.85671 0.00733566C2.62214 0.00733566 0 2.56679 0 5.72404C0 8.88129 2.62214 11.4407 5.85671 11.4407Z" fill="#F99D1D"/>
<path d="M5.85698 15.3837C4.43317 15.3818 3.05787 15.8885 1.99038 16.8081L1.94104 16.8519C-0.463624 18.9629 -0.659766 22.577 1.50295 24.9242C3.66566 27.2714 7.36825 27.4628 9.77291 25.3518L21.123 15.3852L5.85698 15.3837Z" fill="#272560"/>
<path d="M21.1128 15.3881L9.76153 25.3547C8.68669 26.2982 7.29118 26.8183 5.8457 26.8143L23.3585 26.8142C26.7365 26.7615 29.1215 24.2809 29.1215 21.0982C29.1215 17.9156 26.5561 15.4321 23.3585 15.3823L21.1128 15.3881Z" fill="#00B6BD"/>
<path d="M37.612 22.0351C37.1244 22.0527 36.6527 21.865 36.3175 21.52C35.9894 21.1717 35.8145 20.7122 35.8301 20.24C35.8255 19.7644 35.9463 19.2956 36.181 18.8783C36.3873 18.5053 36.6391 18.1578 36.931 17.8436L44.1773 9.87201H37.861C37.249 9.87201 36.811 9.66769 36.571 9.26196C36.3374 8.85437 36.2208 8.39309 36.2335 7.92655C36.2167 7.47691 36.3498 7.03404 36.613 6.66412C36.8739 6.31404 37.2986 6.11542 37.7425 6.13579H48.9021C49.3739 6.11464 49.8341 6.28235 50.1755 6.5999C50.492 6.90785 50.6525 7.34568 50.6525 7.90028C50.6659 8.33214 50.5733 8.76089 50.3825 9.15104C50.1994 9.49095 49.9699 9.80516 49.7001 10.0851L42.1538 18.2975H49.3041C49.7342 18.2871 50.1437 18.4768 50.4065 18.8083C50.6866 19.1789 50.8279 19.6316 50.807 20.0911C50.8274 20.5699 50.7095 21.0447 50.4665 21.4616C50.222 21.8425 49.7886 22.0366 49.1796 22.0366L37.612 22.0351Z" fill="#272560"/>
<path d="M55.1423 22.2453C53.1563 22.2453 52.7424 21.2529 52.7424 20.421V8.27828C52.7424 7.64342 52.9389 7.12969 53.3288 6.75169C53.7188 6.37369 54.3398 6.18104 55.1768 6.18104C55.8817 6.18104 56.4397 6.3372 56.8372 6.64661C57.2347 6.95601 57.4552 7.45515 57.4552 8.09731V20.3568C57.4552 21.0237 57.2392 21.5141 56.8132 21.8162C56.3872 22.1183 55.8397 22.2453 55.1423 22.2453ZM55.1423 4.87774C54.3683 4.87774 53.7338 4.65736 53.2538 4.22244C52.7739 3.78752 52.5234 3.18769 52.5234 2.45066C52.5049 1.79726 52.7688 1.16625 53.2508 0.710984C53.7263 0.257092 54.3638 0.0250378 55.1423 0.0250378C55.7842 0.0263999 56.4082 0.231348 56.9197 0.608822C57.4777 1.00871 57.7612 1.63044 57.7612 2.4565C57.7612 3.19352 57.5152 3.79044 57.0307 4.22974C56.5462 4.66904 55.9117 4.88212 55.1423 4.88212V4.87774Z" fill="#272560"/>
<path d="M62.6326 26.8983C60.7757 26.8983 60.3827 25.8898 60.3827 25.0433V7.86673C60.3666 7.32873 60.5794 6.80812 60.9707 6.42769C61.3591 6.04969 61.9816 5.85703 62.8186 5.85703C63.3392 5.85189 63.8535 5.96798 64.3185 6.19563C64.812 6.44228 65.0685 6.92537 65.0685 7.61862C65.1685 7.50673 65.276 7.39192 65.391 7.27418C65.7062 6.96282 66.0587 6.6894 66.441 6.4598C67.37 5.89559 68.4463 5.60373 69.5413 5.61914C70.5907 5.5993 71.6302 5.8182 72.5772 6.25839C73.4439 6.67466 74.1985 7.28242 74.7807 8.03311C75.3874 8.83604 75.8303 9.74465 76.0856 10.7098C76.3776 11.8004 76.5208 12.9236 76.5116 14.0505C76.5223 15.1985 76.3575 16.3416 76.0226 17.4423C75.7267 18.4201 75.2409 19.3337 74.5917 20.1336C73.9661 20.8873 73.1733 21.4936 72.2727 21.9069C71.2929 22.3441 70.2247 22.562 69.1469 22.5447C68.4251 22.5648 67.7049 22.4662 67.0169 22.2528C66.5228 22.0898 66.0532 21.8635 65.6205 21.58C65.3859 21.425 65.1696 21.2454 64.9755 21.0443V24.9557C64.9755 25.6358 64.785 26.1379 64.4085 26.4473C64.032 26.7567 63.4531 26.8983 62.6326 26.8983ZM68.3414 9.5101C67.8303 9.49807 67.3246 9.61417 66.8729 9.84724C66.4479 10.0817 66.0836 10.4077 65.808 10.8003C65.4983 11.2444 65.2723 11.7386 65.1405 12.2598C64.9853 12.8654 64.9092 13.4877 64.914 14.1118C64.914 15.5334 65.214 16.6732 65.814 17.5007C66.414 18.3282 67.2284 18.715 68.3474 18.715C69.4663 18.715 70.2808 18.3005 70.8463 17.4467C71.4118 16.5929 71.7133 15.456 71.7133 14.1118C71.7151 13.4893 71.6365 12.869 71.4793 12.2656C71.3475 11.7467 71.1264 11.2532 70.8253 10.8061C70.5575 10.413 70.1977 10.0874 69.7753 9.856C69.3358 9.62271 68.842 9.50358 68.3414 9.5101Z" fill="#272560"/>
</svg>
